<svg xmlns="http://www.w3.org/2000/svg" viewBox="0 0 128.533 111.434"><defs><style>.a,.b{fill:none;stroke-miterlimit:10;fill-rule:evenodd;}.a{stroke:#b3b3b3;}.b{stroke:#a09f9f;}</style></defs><title>background</title><path class="a" d="M.522,36.64V111" transform="translate(0.25 0.434)"/><path class="a" d="M96.334,0V55.7" transform="translate(0.25 0.434)"/><path class="a" d="M32.082,92.579V111" transform="translate(0.25 0.434)"/><path class="a" d="M96.334,92.579V111" transform="translate(0.25 0.434)"/><path class="a" d="M32.082,0V55.7" transform="translate(0.25 0.434)"/><path class="b" d="M128.028,0l-63.8,37.152" transform="translate(0.25 0.434)"/><path class="b" d="M96.334,55.7,32.082,92.878" transform="translate(0.25 0.434)"/><path class="b" d="M128.028,74.157,96.334,92.878" transform="translate(0.25 0.434)"/><path class="b" d="M64.226,0,0,37.152" transform="translate(0.25 0.434)"/><path class="b" d="M32.082,55.7,0,74.157" transform="translate(0.25 0.434)"/><path class="b" d="M64.226,0,96.334,18.405" transform="translate(0.25 0.434)"/><path class="b" d="M96.334,55.7l31.694,18.457" transform="translate(0.25 0.434)"/><path class="b" d="M32.082,55.7,64.226,74.157" transform="translate(0.25 0.434)"/><path class="b" d="M0,0,32.082,18.405" transform="translate(0.25 0.434)"/><path class="a" d="M64.226,37.152V111" transform="translate(0.25 0.434)"/></svg>