<svg xmlns="http://www.w3.org/2000/svg" viewBox="0 0 1920 1080"><defs><style>.a{fill:#fff;}.b{fill:#808285;}</style></defs><title>fullsize-loading</title><rect class="a" width="1920" height="1080"/><path class="b" d="M840.59863,473.53662h5.13575v45.71826h26.647l-.8125,4.54737H840.59863Z"/><path class="b" d="M909.69336,505.61328c0,10.23975-5.76416,19.05322-16.68945,19.05322-10.05567,0-16.231-8.03906-16.231-18.958,0-10.51661,5.91943-19.0044,16.61426-19.0044C903.21826,486.7041,909.69336,494.23877,909.69336,505.61328Zm-27.8916.07178c0,8.31494,4.33105,14.74267,11.479,14.74267,7.27979,0,11.38379-6.01611,11.38379-14.731,0-8.36963-4.05469-14.75391-11.52783-14.75391C885.55127,490.94287,881.80176,497.18311,881.80176,505.68506Z"/><path class="b" d="M944.09131,516.45361a47.84081,47.84081,0,0,0,.5039,7.34864h-4.62255a22.0063,22.0063,0,0,1-.625-5.19825c-1.24707,2.56055-4.29981,6.0625-11.56641,6.0625-8.46826,0-12.103-5.49316-12.103-10.96289,0-8.02441,6.24756-11.68261,17.07129-11.68261H939.313v-3.418c0-3.42725-1.05713-7.84766-8.64209-7.84766-6.7417,0-7.79834,3.4585-8.53272,6.36426h-4.73193c.45508-4.44531,3.20361-10.42725,13.39453-10.41553,8.53174.01172,13.29053,3.54883,13.29053,11.64258Zm-4.71777-10.75879h-6.53711c-7.66944,0-12.15284,2.05323-12.15284,7.77247,0,4.20166,2.95166,7.14794,7.74952,7.14794,9.61572,0,10.94043-6.42529,10.94043-13.68212Z"/><path class="b" d="M984.44531,470.82617v42.63037c0,3.44483,0,6.78028.07227,10.34571h-4.63379c-.15527-.91016-.251-4.02881-.2627-5.65577-1.7998,4.12647-5.68164,6.52-11.81933,6.52-9.37256,0-15.0586-7.62109-15.0586-18.57226,0-11.1582,6.167-19.39014,16.09864-19.39014,6.86523,0,9.74609,2.877,10.77929,5.06543V470.82617Zm-26.6499,35.10108c0,9.39111,4.69678,14.46582,10.68115,14.46582,9.06641,0,11.335-6.437,11.335-15.42188,0-8.75781-1.98925-13.99365-10.75586-13.99365C962.23828,490.97754,957.79541,496.40039,957.79541,505.92725Z"/><path class="b" d="M995.73242,470.82617h4.82422v7.38867h-4.82422Zm0,16.74219h4.82422v36.23389h-4.82422Z"/><path class="b" d="M1011.94336,496.69873c0-3.16846,0-6.27344-.07227-9.13037h4.70606c.15527,1.11719.23926,5.4165.19043,6.45947,1.52637-3.42969,4.49023-7.32373,11.74512-7.32373,6.60449,0,12.14257,3.86572,12.14257,13.69873v23.39942h-4.82422V501.083c0-6.0044-2.43261-9.97315-8.38574-9.97315-7.80664,0-10.67773,6.27442-10.67773,13.89209v18.8003h-4.82422Z"/><path class="b" d="M1080.63574,520.97314c0,11.60157-4.98535,17.92725-16.0957,17.92725-10.13477,0-13.80371-5.68359-14.5752-10.92529h4.91993c1.1914,4.52978,4.8916,6.79052,9.85742,6.79052,8.876,0,11.22558-5.69042,11.22558-14.50048v-3.38623c-1.94433,4.41455-5.3916,6.84228-11.748,6.84228-8.67871,0-14.998-7.05957-14.998-18.01269,0-12.01661,6.9248-19.0044,15.57129-19.0044,7.17187,0,10.24707,3.37549,11.1748,6.04785.07129-1.8916.17871-4.36572.25-5.18359h4.55078c-.01171,1.66553-.13281,7.00732-.13281,10.48682Zm-26.3623-15.46679c0,8.17627,4.29394,13.93017,10.77929,13.93017,8.49317,0,11.03321-5.66455,11.03321-14.46,0-8.916-2.55762-13.999-10.81641-13.999C1057.68066,490.97754,1054.27344,497.43652,1054.27344,505.50635Z"/></svg>