<svg xmlns="http://www.w3.org/2000/svg" viewBox="0 0 400 225"><defs><style>.a{fill:#fff;}.b{fill:#808285;}</style></defs><title>icon-loading</title><rect class="a" width="400" height="225"/><path class="b" d="M80.59915,80.62124h5.13526V126.3395h26.64746l-.8125,4.54736H80.59915Z"/><path class="b" d="M149.69388,112.6979c0,10.23974-5.76416,19.05322-16.68945,19.05322-10.05567,0-16.231-8.03906-16.231-18.958,0-10.5166,5.91943-19.00439,16.61426-19.00439C143.21878,93.78872,149.69388,101.32338,149.69388,112.6979Zm-27.8916.07177c0,8.31494,4.33105,14.74268,11.479,14.74268,7.27979,0,11.38379-6.01611,11.38379-14.731,0-8.36963-4.05469-14.7539-11.52783-14.7539C125.55179,98.02749,121.80228,104.26772,121.80228,112.76967Z"/><path class="b" d="M184.09232,123.53823a47.84076,47.84076,0,0,0,.5039,7.34863h-4.62256a22.00739,22.00739,0,0,1-.625-5.19824c-1.24707,2.56055-4.2998,6.0625-11.5664,6.0625-8.46826,0-12.103-5.49317-12.103-10.96289,0-8.02442,6.24756-11.68262,17.07129-11.68262H179.314v-3.418c0-3.42724-1.05713-7.84765-8.64209-7.84765-6.7417,0-7.79834,3.45849-8.53272,6.36425h-4.73193c.45508-4.44531,3.20361-10.42724,13.39453-10.41552,8.53174.01171,13.29053,3.54882,13.29053,11.64257Zm-4.71778-10.75879h-6.53711c-7.66943,0-12.15283,2.05322-12.15283,7.77246,0,4.20166,2.95166,7.14795,7.74951,7.14795,9.61573,0,10.94043-6.42529,10.94043-13.68213Z"/><path class="b" d="M224.44632,77.91079v42.63037c0,3.44482,0,6.78027.07227,10.3457H219.8848c-.15625-.91016-.251-4.02881-.2627-5.65576-1.7998,4.12646-5.68213,6.52-11.81933,6.52-9.37256,0-15.0586-7.6211-15.0586-18.57227,0-11.1582,6.167-19.39013,16.09815-19.39013,6.86621,0,9.7456,2.877,10.77978,5.06543V77.91079Zm-26.6499,35.10107c0,9.39111,4.69678,14.46582,10.68115,14.46582,9.06641,0,11.335-6.437,11.335-15.42187,0-8.75782-1.99023-13.99366-10.75586-13.99366C202.23978,98.06215,197.79642,103.485,197.79642,113.01186Z"/><path class="b" d="M235.73343,77.91079h4.82422v7.38867h-4.82422Zm0,16.74218h4.82422v36.23389h-4.82422Z"/><path class="b" d="M251.94339,103.78334c0-3.16845,0-6.27343-.07129-9.13037h4.70606c.15527,1.11719.23828,5.41651.18945,6.45948,1.52637-3.42969,4.49023-7.32373,11.74512-7.32373,6.60547,0,12.14355,3.86572,12.14355,13.69873v23.39941h-4.82422V108.16762c0-6.00439-2.43359-9.97314-8.38574-9.97314-7.80664,0-10.67871,6.27441-10.67871,13.89209v18.80029h-4.82422Z"/><path class="b" d="M320.63675,128.05776c0,11.60156-4.98535,17.92676-16.0957,17.92676-10.13477,0-13.80371-5.6836-14.5752-10.92481h4.91895c1.19238,4.5293,4.89258,6.79,9.85742,6.79,8.876,0,11.22558-5.69043,11.22558-14.5v-3.38623c-1.94335,4.41455-5.3916,6.84229-11.74707,6.84229-8.67871,0-14.998-7.05957-14.998-18.0127,0-12.0166,6.92383-19.00439,15.57129-19.00439,7.1709,0,10.24707,3.37548,11.17382,6.04785.07227-1.8916.17872-4.36573.251-5.1836h4.55078c-.01172,1.66553-.13281,7.00733-.13281,10.48682Zm-26.3623-15.4668c0,8.17627,4.29394,13.93018,10.77929,13.93018,8.49317,0,11.03321-5.66455,11.03321-14.46,0-8.916-2.55762-13.999-10.81739-13.999C297.68167,98.06215,294.27445,104.52114,294.27445,112.591Z"/></svg>