<svg xmlns="http://www.w3.org/2000/svg" viewBox="0 0 313.99999 104"><defs><style>.a{fill:#0a0918;fill-rule:evenodd;}.b{fill:#efeee1;}</style></defs><title>logo</title><path class="a" d="M172,48,183,0H314l-19.3989,104H0L12,48Z"/><path class="b" d="M29.1486,96.0456a25.169,25.169,0,0,0,6.63-.84,17.17728,17.17728,0,0,0,5.37-2.43,11.64183,11.64183,0,0,0,3.57-3.9,10.70627,10.70627,0,0,0,1.29-5.31,10.00855,10.00855,0,0,0-.66-3.93,7.91958,7.91958,0,0,0-1.62-2.49,6.832,6.832,0,0,0-2.04-1.44,15.0085,15.0085,0,0,0-1.92-.72,11.44525,11.44525,0,0,0,5.43-3.75,10.05462,10.05462,0,0,0,2.07-6.45q0-4.61955-3.36-6.69-3.3609-2.07-9.12-2.07h-16.68l-8.46,40.02Zm-.42-30.66h3.36q2.9391,0,2.94,2.52a3.11257,3.11257,0,0,1-1.2,2.61,4.74827,4.74827,0,0,1-3,.93h-3.36Zm-3.12,14.7h4.08a4.90576,4.90576,0,0,1,2.52.6,2.35638,2.35638,0,0,1,1.02,2.22,3.0676,3.0676,0,0,1-.99,2.28,4.69743,4.69743,0,0,1-3.33.96h-4.56Z"/><path class="b" d="M77.5077,96.0456l2.28-10.86h-17.58l.9001-4.38H76.3077l2.0401-9.54H65.1477l.9601-4.44H82.4877l2.28-10.8H55.4878l-8.46,40.02Z"/><path class="b" d="M94.6074,96.0456l2.76-13.08h3.48l3.18,13.08h14.22l-4.74-15.72a16.67364,16.67364,0,0,0,6.06-5.22,14.50638,14.50638,0,0,0,2.34-8.58,9.21269,9.21269,0,0,0-3.6-7.71q-3.6-2.79-9.78-2.79h-18.18l-8.46,40.02Zm6.3-29.76h4.44q3.479,0,3.48,2.76a3.36683,3.36683,0,0,1-1.32,2.82,6.07269,6.07269,0,0,1-3.78,1.02h-4.2Z"/><path class="b" d="M146.1474,82.1256l-.96,4.38q-.96045.1209-1.83.21a17.8122,17.8122,0,0,1-1.83.09,4.90409,4.90409,0,0,1-4.14-1.98,8.74274,8.74274,0,0,1-1.5-5.4,20.72575,20.72575,0,0,1,.63-5.16,15.53264,15.53264,0,0,1,1.8-4.35,10.38945,10.38945,0,0,1,2.76-3.03,5.89053,5.89053,0,0,1,3.51-1.14,5.438,5.438,0,0,1,3.72,1.08,6.76681,6.76681,0,0,1,1.8,2.64l11.7-5.04a16.19707,16.19707,0,0,0-2.34-4.05,12.07435,12.07435,0,0,0-3.33-2.85,15.58313,15.58313,0,0,0-4.59-1.71,29.25692,29.25692,0,0,0-6.12-.57,22.46474,22.46474,0,0,0-9.51,1.95,21.687,21.687,0,0,0-7.2,5.28,23.31433,23.31433,0,0,0-4.56,7.8,28.3437,28.3437,0,0,0-1.59,9.57,19.926,19.926,0,0,0,1.29,7.47,14.84334,14.84334,0,0,0,3.54,5.34,14.37575,14.37575,0,0,0,5.34,3.18,20.68334,20.68334,0,0,0,6.69,1.05,54.84346,54.84346,0,0,0,8.88-.69,47.46589,47.46589,0,0,0,7.26-1.71l4.44-21.06h-17.04l-1.8,8.7Z"/><path class="b" d="M173.0866,96.0456l3.66-17.28,2.94,17.52h5.52l10.38-17.52-3.66,17.28h12.3l8.46-40.02h-13.32l-12.96,21.54-3.84-21.54h-13.32l-8.46,40.02Z"/><path class="b" d="M220.186,96.0456l3.36-5.94h11.76l.84,5.94h13.74l-6.36-40.02h-13.5l-23.34,40.02Zm13.56-26.7,1.2,11.4h-7.2Z"/><path class="b" d="M264.82579,96.0456l4.14-19.5,7.32,19.5h11.94l8.46-40.02h-12.6l-3.84,18.06-6.6-18.06h-12.96l-8.46,40.02Z"/><path class="b" d="M191.5057,48.0456l3.66-17.28,2.94,17.52h5.52l10.38-17.52-3.66,17.28h12.3l8.46-40.02h-13.32l-12.96,21.54-3.84-21.54h-13.32l-8.46,40.02Z"/><path class="b" d="M238.60509,48.0456l3.36-5.94h11.76l.84,5.94h13.74l-6.36-40.02h-13.5l-23.34,40.02Zm13.56-26.7,1.2,11.4h-7.2Z"/><path class="b" d="M286.54569,48.0456l6.18-29.22h10.5l2.28-10.8h-34.02l-2.28,10.8h10.56l-6.18,29.22Z"/></svg>